<svg width="24" height="24" viewBox="0 0 24 24" fill="none" xmlns="http://www.w3.org/2000/svg">
<path d="M15.75 12.75H8.25C7.836 12.75 7.5 13.086 7.5 13.5C7.5 13.914 7.836 14.25 8.25 14.25H15.75C16.164 14.25 16.5 13.914 16.5 13.5C16.5 13.086 16.164 12.75 15.75 12.75ZM17.25 8.25H6.75C6.336 8.25 6 8.586 6 9C6 9.414 6.336 9.75 6.75 9.75H17.25C17.664 9.75 18 9.414 18 9C18 8.586 17.664 8.25 17.25 8.25ZM12 0C5.37302 0 0 4.70098 0 10.5C0 13.8143 1.75875 16.7647 4.5 18.6893V24L9.75675 20.8102C10.4843 20.9303 11.2327 21 12 21C18.6278 21 24 16.299 24 10.5C24 4.70098 18.6278 0 12 0ZM12 19.5C11.124 19.5 10.278 19.398 9.46498 19.2247L5.93396 21.3472L5.98122 17.8687C3.27451 16.2405 1.5 13.5495 1.5 10.5C1.5 5.52977 6.20098 1.5 12 1.5C17.799 1.5 22.5 5.52977 22.5 10.5C22.5 15.4702 17.799 19.5 12 19.5Z" fill="#9E9E9E"/>
</svg>
