<svg width="11" height="20" viewBox="0 0 11 20" fill="none" xmlns="http://www.w3.org/2000/svg">
<path d="M0.448242 10.3512H2.59197V19.1217C2.59197 19.2949 2.73315 19.4352 2.9074 19.4352H6.54216C6.7164 19.4352 6.85759 19.2949 6.85759 19.1217V10.3925H9.32198C9.48222 10.3925 9.61703 10.273 9.63533 10.1148L10.0096 6.88595C10.0199 6.79711 9.99158 6.70815 9.93177 6.64151C9.8719 6.5748 9.78623 6.53662 9.69633 6.53662H6.85772V4.5126C6.85772 3.90246 7.18829 3.59307 7.84034 3.59307C7.93327 3.59307 9.69633 3.59307 9.69633 3.59307C9.87058 3.59307 10.0118 3.45269 10.0118 3.2796V0.315791C10.0118 0.142629 9.87058 0.00231968 9.69633 0.00231968H7.13851C7.12047 0.00144197 7.08041 0 7.02136 0C6.57755 0 5.03491 0.0865806 3.81634 1.20066C2.46617 2.43523 2.65385 3.91343 2.69871 4.16973V6.53656H0.448242C0.273999 6.53656 0.132812 6.67687 0.132812 6.85003V10.0377C0.132812 10.2108 0.273999 10.3512 0.448242 10.3512Z" fill="white"/>
</svg>
