<svg width="20" height="20" viewBox="0 0 20 20" fill="none" xmlns="http://www.w3.org/2000/svg">
<path d="M14.5862 0H5.41382C2.42859 0 0 2.42859 0 5.41382V14.5863C0 17.5714 2.42859 20 5.41382 20H14.5863C17.5714 20 20 17.5714 20 14.5863V5.41382C20 2.42859 17.5714 0 14.5862 0V0ZM18.8275 14.5863C18.8275 16.9249 16.9249 18.8275 14.5862 18.8275H5.41382C3.0751 18.8275 1.17249 16.9249 1.17249 14.5863V5.41382C1.17249 3.0751 3.0751 1.17249 5.41382 1.17249H14.5863C16.9249 1.17249 18.8275 3.0751 18.8275 5.41382V14.5863Z" fill="white"/>
<path d="M9.5 4C6.46724 4 4 6.46724 4 9.5C4 12.5328 6.46724 15 9.5 15C12.5328 15 15 12.5328 15 9.5C15 6.46724 12.5328 4 9.5 4ZM9.5 13.8208C7.11762 13.8208 5.17922 11.8825 5.17922 9.5C5.17922 7.11762 7.11762 5.17922 9.5 5.17922C11.8825 5.17922 13.8208 7.11762 13.8208 9.5C13.8208 11.8825 11.8825 13.8208 9.5 13.8208Z" fill="white"/>
<path d="M15.4999 2C14.6728 2 14 2.89722 14 3.99991C14 5.10278 14.6728 6 15.4999 6C16.3271 6 17 5.10278 17 3.99991C17 2.89703 16.3271 2 15.4999 2ZM15.4999 4.5487C15.273 4.5487 15.0883 4.30244 15.0883 3.99991C15.0883 3.69718 15.273 3.45111 15.4999 3.45111C15.727 3.45111 15.9117 3.69718 15.9117 3.99991C15.9117 4.30244 15.727 4.5487 15.4999 4.5487Z" fill="white"/>
</svg>
