<svg width="129" height="63" viewBox="0 0 129 63" fill="none" xmlns="http://www.w3.org/2000/svg">
<path d="M7.5 15V3H3C2.15625 3 1.44531 2.71094 0.867188 2.13281C0.289062 1.53906 0 0.828125 0 0H18C18 0.84375 17.7031 1.55469 17.1094 2.13281C16.5156 2.71094 15.8125 3 15 3H10.5V15H7.5ZM24 15C23.1562 15 22.4453 14.7109 21.8672 14.1328C21.2891 13.5391 21 12.8281 21 12H39C39 12.8438 38.7031 13.5547 38.1094 14.1328C37.5156 14.7109 36.8125 15 36 15H24ZM24 9C23.1562 9 22.4453 8.71094 21.8672 8.13281C21.2891 7.53906 21 6.82812 21 6H39C39 6.84375 38.7031 7.55469 38.1094 8.13281C37.5156 8.71094 36.8125 9 36 9H24ZM24 3C23.1562 3 22.4453 2.71094 21.8672 2.13281C21.2891 1.53906 21 0.828125 21 0H39C39 0.84375 38.7031 1.55469 38.1094 2.13281C37.5156 2.71094 36.8125 3 36 3H24ZM42 15C42 14.1719 42.2891 13.4688 42.8672 12.8906C43.4609 12.2969 44.1719 12 45 12H57V9H42V0H60C60 0.84375 59.7031 1.55469 59.1094 2.13281C58.5156 2.71094 57.8125 3 57 3H45V6H60V15H42ZM63 15V0H66V12H81C81 12.8438 80.7031 13.5547 80.1094 14.1328C79.5156 14.7109 78.8125 15 78 15H63ZM84 15V6H102V15H99V9H87V15H84ZM87 3C86.1562 3 85.4453 2.71094 84.8672 2.13281C84.2891 1.53906 84 0.828125 84 0H102C102 0.84375 101.703 1.55469 101.109 2.13281C100.516 2.71094 99.8125 3 99 3H87ZM3 39V27L0 24H4.5L12 31.5L19.5 24H24L21 27V39H18V30L13.5 34.5V39H10.5V34.5L6 30V39H3ZM27 39V30H30V36H42V30H45V39H27ZM30 27C29.1562 27 28.4453 26.7109 27.8672 26.1328C27.2891 25.5391 27 24.8281 27 24H45C45 24.8438 44.7031 25.5547 44.1094 26.1328C43.5156 26.7109 42.8125 27 42 27H30ZM55.5 39V27H51C50.1562 27 49.4453 26.7109 48.8672 26.1328C48.2891 25.5391 48 24.8281 48 24H66C66 24.8438 65.7031 25.5547 65.1094 26.1328C64.5156 26.7109 63.8125 27 63 27H58.5V39H55.5ZM69 39V30H72V36H84V30H87V39H69ZM72 27C71.1562 27 70.4453 26.7109 69.8672 26.1328C69.2891 25.5391 69 24.8281 69 24H87C87 24.8438 86.7031 25.5547 86.1094 26.1328C85.5156 26.7109 84.8125 27 84 27H72ZM90 39V30H103.5C103.906 30 104.258 29.8594 104.555 29.5781C104.852 29.2812 105 28.9219 105 28.5V27H93C92.1562 27 91.4453 26.7109 90.8672 26.1328C90.2891 25.5391 90 24.8281 90 24H108V30C108 30.8438 107.703 31.5547 107.109 32.1328C106.516 32.7109 105.812 33 105 33H102L108 39H103.5L97.5 33H93V39H90ZM111 39C111 38.1719 111.289 37.4688 111.867 36.8906C112.461 36.2969 113.172 36 114 36H126V33H111V24H129C129 24.8438 128.703 25.5547 128.109 26.1328C127.516 26.7109 126.812 27 126 27H114V30H129V39H111ZM3 63C2.15625 63 1.44531 62.7109 0.867188 62.1328C0.289062 61.5391 0 60.8281 0 60V54H3V58.5C3 58.9219 3.14062 59.2812 3.42188 59.5781C3.71875 59.8594 4.07812 60 4.5 60H15V57H9C8.15625 57 7.44531 56.7109 6.86719 56.1328C6.28906 55.5391 6 54.8281 6 54H18V63H3ZM0 51V48H18C18 48.8438 17.7031 49.5547 17.1094 50.1328C16.5156 50.7109 15.8125 51 15 51H0ZM21 63V54H39V63H36V57H24V63H21ZM24 51C23.1562 51 22.4453 50.7109 21.8672 50.1328C21.2891 49.5391 21 48.8281 21 48H39C39 48.8438 38.7031 49.5547 38.1094 50.1328C37.5156 50.7109 36.8125 51 36 51H24ZM42 63V54H55.5C55.9062 54 56.2578 53.8594 56.5547 53.5781C56.8516 53.2812 57 52.9219 57 52.5V51H45C44.1562 51 43.4453 50.7109 42.8672 50.1328C42.2891 49.5391 42 48.8281 42 48H60V54C60 54.8438 59.7031 55.5547 59.1094 56.1328C58.5156 56.7109 57.8125 57 57 57H54L60 63H55.5L49.5 57H45V63H42ZM63 63V54H81V63H78V57H66V63H63ZM66 51C65.1562 51 64.4453 50.7109 63.8672 50.1328C63.2891 49.5391 63 48.8281 63 48H81C81 48.8438 80.7031 49.5547 80.1094 50.1328C79.5156 50.7109 78.8125 51 78 51H66ZM87 63C86.1562 63 85.4453 62.7109 84.8672 62.1328C84.2891 61.5391 84 60.8281 84 60V54H87V58.5C87 58.9219 87.1406 59.2812 87.4219 59.5781C87.7188 59.8594 88.0781 60 88.5 60H99V57H93C92.1562 57 91.4453 56.7109 90.8672 56.1328C90.2891 55.5391 90 54.8281 90 54H102V63H87ZM84 51V48H102C102 48.8438 101.703 49.5547 101.109 50.1328C100.516 50.7109 99.8125 51 99 51H84ZM108 63C107.156 63 106.445 62.7109 105.867 62.1328C105.289 61.5391 105 60.8281 105 60H123C123 60.8438 122.703 61.5547 122.109 62.1328C121.516 62.7109 120.812 63 120 63H108ZM108 57C107.156 57 106.445 56.7109 105.867 56.1328C105.289 55.5391 105 54.8281 105 54H123C123 54.8438 122.703 55.5547 122.109 56.1328C121.516 56.7109 120.812 57 120 57H108ZM108 51C107.156 51 106.445 50.7109 105.867 50.1328C105.289 49.5391 105 48.8281 105 48H123C123 48.8438 122.703 49.5547 122.109 50.1328C121.516 50.7109 120.812 51 120 51H108Z" fill="white"/>
</svg>
