<svg width="24" height="24" viewBox="0 0 24 24" fill="none" xmlns="http://www.w3.org/2000/svg">
<g clip-path="url(#clip0_21:39)">
<path d="M23.3702 18.5147L18.5125 15.2752C17.8961 14.8674 17.0697 15.0016 16.614 15.5835L15.199 17.4029C15.0172 17.6426 14.6866 17.7122 14.4235 17.5661L14.1544 17.4177C13.2621 16.9313 12.1519 16.3258 9.91501 14.0882C7.67814 11.8505 7.07144 10.7395 6.58509 9.84882L6.4375 9.57965C6.28935 9.31663 6.35759 8.98466 6.59746 8.80136L8.41556 7.38679C8.99729 6.931 9.13166 6.1049 8.72433 5.48826L5.48481 0.630576C5.06736 0.00263825 4.22983 -0.185865 3.58356 0.202624L1.55225 1.42283C0.914006 1.79806 0.445747 2.40575 0.245667 3.11857C-0.485802 5.78376 0.064475 10.3835 6.84028 17.1601C12.2303 22.5497 16.2429 23.9991 19.0009 23.9991C19.6356 24.0018 20.2679 23.9192 20.8806 23.7535C21.5936 23.5537 22.2014 23.0854 22.5764 22.4469L23.7978 20.4169C24.1868 19.7705 23.9984 18.9324 23.3702 18.5147ZM23.1087 20.0065L21.89 22.0378C21.6208 22.4986 21.1836 22.8374 20.6702 22.9833C18.2098 23.6588 13.9112 23.0993 7.40617 16.5942C0.901117 10.0892 0.341653 5.79098 1.01716 3.33018C1.1632 2.81613 1.50243 2.37843 1.9638 2.10875L3.99511 0.890131C4.27552 0.721407 4.63903 0.803191 4.82018 1.07568L6.57993 3.71768L8.05693 5.93295C8.23381 6.20042 8.17569 6.55892 7.92336 6.75684L6.10483 8.17141C5.55141 8.59458 5.39337 9.36026 5.7341 9.96796L5.8785 10.2303C6.38965 11.1678 7.02513 12.334 9.34519 14.6537C11.6653 16.9733 12.8311 17.6089 13.7681 18.1199L14.0309 18.2647C14.6385 18.6054 15.4042 18.4474 15.8274 17.894L17.242 16.0755C17.44 15.8233 17.7983 15.7652 18.0659 15.9419L22.9231 19.1814C23.1958 19.3624 23.2776 19.7261 23.1087 20.0065Z" fill="black"/>
<path d="M13.5991 4.00212C17.3524 4.00629 20.3939 7.04789 20.3982 10.8011C20.3982 11.022 20.5772 11.2011 20.7981 11.2011C21.019 11.2011 21.198 11.022 21.198 10.8011C21.1934 6.6063 17.794 3.20686 13.5991 3.20227C13.3783 3.20227 13.1992 3.38131 13.1992 3.6022C13.1992 3.82308 13.3783 4.00212 13.5991 4.00212Z" fill="black"/>
<path d="M13.5991 6.40172C16.0277 6.40458 17.9956 8.37257 17.9985 10.8011C17.9985 11.022 18.1776 11.201 18.3984 11.201C18.6193 11.201 18.7984 11.022 18.7984 10.8011C18.795 7.93098 16.4692 5.60515 13.5991 5.60187C13.3783 5.60187 13.1992 5.7809 13.1992 6.00179C13.1992 6.22268 13.3783 6.40172 13.5991 6.40172Z" fill="black"/>
<path d="M13.5991 8.80138C14.703 8.80269 15.5975 9.69721 15.5989 10.8011C15.5989 11.022 15.7779 11.201 15.9988 11.201C16.2196 11.201 16.3987 11.022 16.3987 10.8011C16.3969 9.25567 15.1446 8.00326 13.5991 8.00153C13.3783 8.00153 13.1992 8.18056 13.1992 8.40145C13.1992 8.62234 13.3783 8.80138 13.5991 8.80138Z" fill="black"/>
</g>
<defs>
<clipPath id="clip0_21:39">
<rect width="24" height="24" fill="white"/>
</clipPath>
</defs>
</svg>
