<svg width="32" height="32" viewBox="0 0 32 32" fill="none" xmlns="http://www.w3.org/2000/svg">
<circle cx="16" cy="16" r="16" fill="#F1F1F1"/>
<path d="M16 7C12.9167 7 10.4 9.57388 10.4 12.7273C10.4 14.6981 11.3849 16.4517 12.875 17.483C10.0213 18.7346 8 21.6301 8 25H9.6C9.6 21.3749 12.4555 18.4545 16 18.4545C19.5445 18.4545 22.4 21.3749 22.4 25H24C24 21.6301 21.9787 18.7346 19.125 17.483C20.6151 16.4517 21.6 14.6981 21.6 12.7273C21.6 9.57388 19.0833 7 16 7ZM16 8.63636C18.2186 8.63636 20 10.4582 20 12.7273C20 14.9963 18.2186 16.8182 16 16.8182C13.7814 16.8182 12 14.9963 12 12.7273C12 10.4582 13.7814 8.63636 16 8.63636Z" fill="#828282"/>
</svg>
