<svg width="20" height="12" viewBox="0 0 20 12" fill="none" xmlns="http://www.w3.org/2000/svg">
<path d="M10.1207 12C13.014 12 11.9824 10.2416 12.2057 9.736C12.2024 9.3584 12.199 8.9952 12.2124 8.7744C12.3957 8.824 12.8282 9.0344 13.7215 9.868C15.1007 11.204 15.4532 12 16.5673 12H18.6181C19.2681 12 19.6065 11.7416 19.7756 11.5248C19.9389 11.3152 20.0989 10.9472 19.9239 10.3744C19.4665 8.9952 16.7981 6.6136 16.6323 6.3624C16.6573 6.316 16.6973 6.2544 16.7182 6.2224H16.7165C17.2431 5.5544 19.2531 2.6632 19.549 1.5064C19.5498 1.5048 19.5506 1.5024 19.5506 1.5C19.7106 0.972 19.564 0.6296 19.4123 0.436C19.184 0.1464 18.8206 0 18.3298 0H16.279C15.5923 0 15.0715 0.332 14.8082 0.9376C14.3673 2.0136 13.129 4.2264 12.2007 5.0096C12.1724 3.9 12.1915 3.0528 12.2065 2.4232C12.2365 1.1952 12.3332 0 11.0057 0H7.78241C6.95076 0 6.15493 0.872 7.01659 1.9072C7.76991 2.8144 7.28742 3.32 7.44992 5.8368C6.81659 5.1848 5.68994 3.424 4.89328 1.1736C4.66995 0.5648 4.33162 0.000799942 3.37913 0.000799942H1.32832C0.496661 0.000799942 0 0.436 0 1.1648C0 2.8016 3.77413 12 10.1207 12ZM3.37913 1.2008C3.55996 1.2008 3.57829 1.2008 3.71246 1.5664C4.52828 3.8728 6.35826 7.2856 7.69492 7.2856C8.69907 7.2856 8.69907 6.2976 8.69907 5.9256L8.69824 2.964C8.64324 1.984 8.27158 1.496 8.02741 1.2L10.9507 1.2032C10.9524 1.2168 10.934 4.4792 10.959 5.2696C10.959 6.392 11.8874 7.0352 13.3365 5.6272C14.8657 3.9704 15.9232 1.4936 15.9657 1.3928C16.0282 1.2488 16.0823 1.2 16.279 1.2H18.3298H18.3381C18.3373 1.2024 18.3373 1.2048 18.3365 1.2072C18.149 2.0472 16.2982 4.724 15.679 5.5552C15.669 5.568 15.6598 5.5816 15.6507 5.5952C15.3782 6.0224 15.1565 6.4944 15.6882 7.1584H15.689C15.7373 7.2144 15.8632 7.3456 16.0465 7.528C16.6165 8.0928 18.5715 10.024 18.7448 10.792C18.6298 10.8096 18.5048 10.7968 16.5673 10.8008C16.1548 10.8008 15.8323 10.2088 14.6015 9.0168C13.4949 7.9832 12.7765 7.5608 12.1224 7.5608C10.8524 7.5608 10.9449 8.5504 10.9565 9.7472C10.9607 11.0448 10.9524 10.6344 10.9615 10.716C10.8874 10.744 10.6749 10.8 10.1207 10.8C4.83328 10.8 1.38998 2.7432 1.25749 1.2032C1.30332 1.1992 1.93415 1.2016 3.37913 1.2008Z" fill="white"/>
</svg>
