<svg width="24" height="24" viewBox="0 0 24 24" fill="none" xmlns="http://www.w3.org/2000/svg">
<path d="M23.9111 11.716C23.7221 11.441 19.18 4.99986 11.9999 4.99986C5.83883 4.99986 0.348744 11.404 0.11774 11.677C-0.0392467 11.863 -0.0392467 12.136 0.11774 12.323C0.348744 12.596 5.83883 19.0001 11.9999 19.0001C18.1611 19.0001 23.6511 12.596 23.8821 12.323C24.0271 12.151 24.0401 11.902 23.9111 11.716ZM11.9999 18.0001C7.06088 18.0001 2.36478 13.29 1.17179 12C2.36281 10.709 7.05389 5.99991 11.9999 5.99991C17.779 5.99991 21.8581 10.703 22.8541 11.973C21.7041 13.222 16.981 18.0001 11.9999 18.0001Z" fill="#9E9E9E"/>
<path d="M11.9999 7.99991C9.79391 7.99991 7.99988 9.79394 7.99988 12C7.99988 14.206 9.79391 16 11.9999 16C14.206 16 16 14.206 16 12C16 9.79394 14.206 7.99991 11.9999 7.99991ZM11.9999 15C10.3459 15 8.99988 13.654 8.99988 12C8.99988 10.346 10.3459 8.99996 11.9999 8.99996C13.6539 8.99996 15 10.346 15 12C15 13.654 13.6539 15 11.9999 15Z" fill="#9E9E9E"/>
</svg>
