<svg width="24" height="24" viewBox="0 0 24 24" fill="none" xmlns="http://www.w3.org/2000/svg"><path d="M15.75 12.75h-7.5a.75.75 0 000 1.5h7.5a.75.75 0 000-1.5zm1.5-4.5H6.75a.75.75 0 000 1.5h10.5a.75.75 0 000-1.5zM12 0C5.373 0 0 4.701 0 10.5c0 3.314 1.759 6.265 4.5 8.19V24l5.257-3.19c.727.12 1.476.19 2.243.19 6.628 0 12-4.701 12-10.5S18.628 0 12 0zm0 19.5c-.876 0-1.722-.102-2.535-.275l-3.531 2.122.047-3.478C3.275 16.24 1.5 13.549 1.5 10.5c0-4.97 4.701-9 10.5-9s10.5 4.03 10.5 9-4.701 9-10.5 9z" fill="#9E9E9E"/></svg>