<svg width="11" height="20" viewBox="0 0 11 20" fill="none" xmlns="http://www.w3.org/2000/svg"><path d="M.448 10.351h2.144v8.77c0 .174.141.314.315.314h3.635c.174 0 .316-.14.316-.313v-8.73h2.464c.16 0 .295-.119.313-.277l.375-3.229a.312.312 0 00-.314-.35H6.858V4.514c0-.61.33-.92.982-.92h1.856c.175 0 .316-.14.316-.313V.316a.314.314 0 00-.316-.314H7.14L7.02 0c-.443 0-1.986.087-3.205 1.2C2.466 2.436 2.654 3.914 2.7 4.17v2.367H.449a.314.314 0 00-.316.313v3.188c0 .173.141.313.315.313z" fill="#fff"/></svg>