<svg width="20" height="20" viewBox="0 0 20 20" fill="none" xmlns="http://www.w3.org/2000/svg"><path d="M14.586 0H5.414A5.42 5.42 0 000 5.414v9.172A5.42 5.42 0 005.414 20h9.172A5.42 5.42 0 0020 14.586V5.414A5.42 5.42 0 0014.586 0zm4.242 14.586a4.246 4.246 0 01-4.242 4.242H5.414a4.246 4.246 0 01-4.242-4.242V5.414a4.246 4.246 0 014.242-4.242h9.172a4.246 4.246 0 014.242 4.242v9.172z" fill="#fff"/><path d="M9.5 4A5.506 5.506 0 004 9.5C4 12.533 6.467 15 9.5 15S15 12.533 15 9.5 12.533 4 9.5 4zm0 9.82A4.326 4.326 0 015.18 9.5 4.326 4.326 0 019.5 5.18a4.326 4.326 0 014.32 4.32 4.326 4.326 0 01-4.32 4.32zM15.5 2c-.827 0-1.5.897-1.5 2s.673 2 1.5 2S17 5.103 17 4s-.673-2-1.5-2zm0 2.549c-.227 0-.412-.247-.412-.55 0-.302.185-.548.412-.548.227 0 .412.246.412.549 0 .302-.185.549-.412.549z" fill="#fff"/></svg>