<svg width="129" height="63" viewBox="0 0 129 63" fill="none" xmlns="http://www.w3.org/2000/svg"><path d="M7.5 15V3H3c-.844 0-1.555-.29-2.133-.867A2.95 2.95 0 010 0h18c0 .844-.297 1.555-.89 2.133C16.515 2.71 15.812 3 15 3h-4.5v12h-3zM24 15c-.844 0-1.555-.29-2.133-.867A2.95 2.95 0 0121 12h18c0 .844-.297 1.555-.89 2.133-.594.578-1.297.867-2.11.867H24zm0-6c-.844 0-1.555-.29-2.133-.867A2.95 2.95 0 0121 6h18c0 .844-.297 1.555-.89 2.133C37.515 8.71 36.812 9 36 9H24zm0-6c-.844 0-1.555-.29-2.133-.867A2.95 2.95 0 0121 0h18c0 .844-.297 1.555-.89 2.133C37.515 2.71 36.812 3 36 3H24zm18 12c0-.828.29-1.531.867-2.11.594-.593 1.305-.89 2.133-.89h12V9H42V0h18c0 .844-.297 1.555-.89 2.133C58.515 2.71 57.812 3 57 3H45v3h15v9H42zm21 0V0h3v12h15c0 .844-.297 1.555-.89 2.133-.594.578-1.297.867-2.11.867H63zm21 0V6h18v9h-3V9H87v6h-3zm3-12c-.844 0-1.555-.29-2.133-.867A2.95 2.95 0 0184 0h18c0 .844-.297 1.555-.891 2.133C100.516 2.71 99.813 3 99 3H87zM3 39V27l-3-3h4.5l7.5 7.5 7.5-7.5H24l-3 3v12h-3v-9l-4.5 4.5V39h-3v-4.5L6 30v9H3zm24 0v-9h3v6h12v-6h3v9H27zm3-12c-.844 0-1.555-.29-2.133-.867A2.95 2.95 0 0127 24h18c0 .844-.297 1.555-.89 2.133-.594.578-1.297.867-2.11.867H30zm25.5 12V27H51c-.844 0-1.555-.29-2.133-.867A2.95 2.95 0 0148 24h18c0 .844-.297 1.555-.89 2.133-.594.578-1.297.867-2.11.867h-4.5v12h-3zM69 39v-9h3v6h12v-6h3v9H69zm3-12c-.844 0-1.555-.29-2.133-.867A2.95 2.95 0 0169 24h18c0 .844-.297 1.555-.89 2.133-.594.578-1.297.867-2.11.867H72zm18 12v-9h13.5a1.483 1.483 0 001.5-1.5V27H93c-.844 0-1.555-.29-2.133-.867A2.95 2.95 0 0190 24h18v6c0 .844-.297 1.555-.891 2.133-.593.578-1.297.867-2.109.867h-3l6 6h-4.5l-6-6H93v6h-3zm21 0c0-.828.289-1.531.867-2.11.594-.593 1.305-.89 2.133-.89h12v-3h-15v-9h18c0 .844-.297 1.555-.891 2.133-.593.578-1.297.867-2.109.867h-12v3h15v9h-18zM3 63c-.844 0-1.555-.29-2.133-.867A2.95 2.95 0 010 60v-6h3v4.5c0 .422.14.781.422 1.078A1.51 1.51 0 004.5 60H15v-3H9c-.844 0-1.555-.29-2.133-.867A2.95 2.95 0 016 54h12v9H3zM0 51v-3h18c0 .844-.297 1.555-.89 2.133-.594.578-1.297.867-2.11.867H0zm21 12v-9h18v9h-3v-6H24v6h-3zm3-12c-.844 0-1.555-.29-2.133-.867A2.95 2.95 0 0121 48h18c0 .844-.297 1.555-.89 2.133-.594.578-1.297.867-2.11.867H24zm18 12v-9h13.5a1.482 1.482 0 001.5-1.5V51H45c-.844 0-1.555-.29-2.133-.867A2.95 2.95 0 0142 48h18v6c0 .844-.297 1.555-.89 2.133-.594.578-1.297.867-2.11.867h-3l6 6h-4.5l-6-6H45v6h-3zm21 0v-9h18v9h-3v-6H66v6h-3zm3-12c-.844 0-1.555-.29-2.133-.867A2.95 2.95 0 0163 48h18c0 .844-.297 1.555-.89 2.133-.594.578-1.297.867-2.11.867H66zm21 12c-.844 0-1.555-.29-2.133-.867A2.95 2.95 0 0184 60v-6h3v4.5c0 .422.14.781.422 1.078A1.51 1.51 0 0088.5 60H99v-3h-6c-.844 0-1.555-.29-2.133-.867A2.95 2.95 0 0190 54h12v9H87zm-3-12v-3h18c0 .844-.297 1.555-.891 2.133-.593.578-1.296.867-2.109.867H84zm24 12c-.844 0-1.555-.29-2.133-.867A2.95 2.95 0 01105 60h18c0 .844-.297 1.555-.891 2.133-.593.578-1.297.867-2.109.867h-12zm0-6c-.844 0-1.555-.29-2.133-.867A2.95 2.95 0 01105 54h18c0 .844-.297 1.555-.891 2.133-.593.578-1.297.867-2.109.867h-12zm0-6c-.844 0-1.555-.29-2.133-.867A2.95 2.95 0 01105 48h18c0 .844-.297 1.555-.891 2.133-.593.578-1.297.867-2.109.867h-12z" fill="#fff"/></svg>