<svg width="24" height="24" viewBox="0 0 24 24" fill="none" xmlns="http://www.w3.org/2000/svg"><path d="M12 0C7.111 0 3.134 3.977 3.134 8.866c0 1.61.722 3.34.752 3.413a14.3 14.3 0 001.025 1.917l6.079 9.21c.249.378.617.594 1.01.594s.761-.216 1.01-.593l6.08-9.211a14.24 14.24 0 001.024-1.917c.03-.072.752-1.803.752-3.413C20.866 3.977 16.889 0 12 0zm7.152 11.874a13.096 13.096 0 01-.934 1.747l-6.079 9.211c-.12.182-.158.182-.278 0l-6.079-9.21a13.1 13.1 0 01-.934-1.748c-.009-.022-.67-1.615-.67-3.008 0-4.314 3.509-7.823 7.822-7.823 4.313 0 7.823 3.51 7.823 7.823 0 1.395-.664 2.993-.67 3.008z" fill="#000"/><path d="M12 4.173a4.699 4.699 0 00-4.694 4.693A4.699 4.699 0 0012 13.56a4.699 4.699 0 004.694-4.694A4.699 4.699 0 0012 4.173zm0 8.344a3.655 3.655 0 01-3.65-3.65A3.655 3.655 0 0112 5.215a3.655 3.655 0 013.65 3.65 3.655 3.655 0 01-3.65 3.65z" fill="#000"/></svg>