<svg width="24" height="24" viewBox="0 0 24 24" fill="none" xmlns="http://www.w3.org/2000/svg"><g clip-path="url(#clip0_21:39)" fill="#000"><path d="M23.37 18.515l-4.858-3.24a1.418 1.418 0 00-1.898.309l-1.415 1.819a.605.605 0 01-.775.163l-.27-.148c-.892-.487-2.002-1.092-4.239-3.33-2.237-2.237-2.844-3.348-3.33-4.24l-.147-.268a.606.606 0 01.16-.779l1.818-1.414a1.419 1.419 0 00.308-1.899L5.484.631a1.41 1.41 0 00-1.9-.428l-2.032 1.22A2.865 2.865 0 00.246 3.119C-.486 5.784.064 10.383 6.84 17.16 12.23 22.55 16.243 24 19 24a7.085 7.085 0 001.88-.247 2.861 2.861 0 001.696-1.306l1.222-2.03a1.41 1.41 0 00-.428-1.902zm-.261 1.491l-1.219 2.032c-.27.46-.706.8-1.22.945-2.46.676-6.759.116-13.264-6.389C.901 10.09.342 5.791 1.017 3.33a2.07 2.07 0 01.947-1.221L3.995.89a.612.612 0 01.825.186l1.76 2.642 1.477 2.215a.616.616 0 01-.134.824L6.105 8.17a1.4 1.4 0 00-.37 1.797l.143.262c.512.938 1.147 2.104 3.467 4.424 2.32 2.32 3.486 2.955 4.423 3.466l.263.145a1.4 1.4 0 001.796-.371l1.415-1.818a.616.616 0 01.824-.134l4.857 3.24a.612.612 0 01.186.825zM13.6 4.002a6.807 6.807 0 016.798 6.8.4.4 0 10.8 0 7.607 7.607 0 00-7.599-7.6.4.4 0 000 .8z"/><path d="M13.6 6.402a4.405 4.405 0 014.399 4.4.4.4 0 00.8 0 5.205 5.205 0 00-5.2-5.2.4.4 0 000 .8z"/><path d="M13.6 8.801a2.002 2.002 0 011.999 2 .4.4 0 10.8 0 2.803 2.803 0 00-2.8-2.8.4.4 0 000 .8z"/></g><defs><clipPath id="clip0_21:39"><path fill="#fff" d="M0 0h24v24H0z"/></clipPath></defs></svg>