<svg width="32" height="32" viewBox="0 0 32 32" fill="none" xmlns="http://www.w3.org/2000/svg"><circle cx="16" cy="16" r="16" fill="#F1F1F1"/><path d="M16 7c-3.083 0-5.6 2.574-5.6 5.727 0 1.971.985 3.725 2.475 4.756A8.207 8.207 0 008 25h1.6c0-3.625 2.856-6.546 6.4-6.546 3.544 0 6.4 2.92 6.4 6.546H24a8.207 8.207 0 00-4.875-7.517 5.785 5.785 0 002.475-4.756C21.6 9.574 19.083 7 16 7zm0 1.636c2.219 0 4 1.822 4 4.091 0 2.27-1.781 4.091-4 4.091-2.219 0-4-1.822-4-4.09 0-2.27 1.781-4.092 4-4.092z" fill="#828282"/></svg>