<svg width="20" height="12" viewBox="0 0 20 12" fill="none" xmlns="http://www.w3.org/2000/svg"><path d="M10.12 12c2.894 0 1.862-1.758 2.086-2.264-.004-.378-.007-.74.006-.962.184.05.616.26 1.51 1.094C15.1 11.204 15.453 12 16.567 12h2.051c.65 0 .989-.258 1.158-.475.163-.21.323-.578.148-1.15-.457-1.38-3.126-3.761-3.292-4.013a2.22 2.22 0 01.086-.14h-.002c.527-.668 2.537-3.559 2.833-4.716l.002-.006c.16-.528.013-.87-.139-1.064C19.184.146 18.821 0 18.33 0h-2.051c-.687 0-1.207.332-1.47.938-.442 1.076-1.68 3.288-2.608 4.072-.029-1.11-.01-1.957.005-2.587.03-1.228.127-2.423-1.2-2.423H7.782c-.831 0-1.627.872-.765 1.907.753.907.27 1.413.433 3.93-.633-.652-1.76-2.413-2.557-4.663C4.67.564 4.332 0 3.38 0H1.33C.496 0 0 .436 0 1.165 0 2.802 3.774 12 10.12 12zM3.38 1.2c.18 0 .198 0 .332.366.816 2.307 2.646 5.72 3.983 5.72 1.004 0 1.004-.988 1.004-1.36V2.964c-.056-.98-.427-1.468-.672-1.764l2.924.003c.001.014-.017 3.276.008 4.067 0 1.122.928 1.765 2.377.357 1.53-1.657 2.587-4.133 2.63-4.234.062-.144.116-.193.313-.193h2.06c-.002.002-.002.005-.002.007-.188.84-2.039 3.517-2.658 4.348a.669.669 0 00-.028.04c-.273.427-.495.9.037 1.563h.001c.048.056.174.188.358.37.57.565 2.524 2.496 2.698 3.264-.115.018-.24.005-2.178.009-.412 0-.735-.592-1.966-1.784-1.106-1.034-1.825-1.456-2.479-1.456-1.27 0-1.177.99-1.165 2.186.004 1.298-.005.887.004.969-.074.028-.286.084-.84.084-5.288 0-8.731-8.057-8.864-9.597.046-.004.677-.001 2.122-.002z" fill="#fff"/></svg>