<svg width="24" height="24" viewBox="0 0 24 24" fill="none" xmlns="http://www.w3.org/2000/svg"><path d="M23.911 11.716C23.722 11.441 19.18 5 12 5 5.839 5 .349 11.404.118 11.677a.502.502 0 000 .646C.348 12.596 5.838 19 12 19c6.161 0 11.651-6.404 11.882-6.677a.5.5 0 00.03-.607zM12 18c-4.94 0-9.635-4.71-10.828-6C2.362 10.709 7.054 6 12 6c5.779 0 9.858 4.703 10.854 5.973C21.704 13.222 16.981 18 12 18z" fill="#9E9E9E"/><path d="M12 8c-2.206 0-4 1.794-4 4s1.794 4 4 4 4-1.794 4-4-1.794-4-4-4zm0 7c-1.654 0-3-1.346-3-3s1.346-3 3-3 3 1.346 3 3-1.346 3-3 3z" fill="#9E9E9E"/></svg>